# xmcd CD database file
#
# Track frame offsets:
#	150
#	49802
#	100520
#	142427
#	196681
#	225277
#
# Disc length: 3239 seconds
#
# Revision: 0
# Processed by: cddbd v1.5.2PL0 Copyright (c) Steve Scherf et al.
# Submitted via: CDex 1.70beta2
#
DISCID=470ca506
DTITLE=Horace Silver - Doin' The Thing - At The Village Gate
DYEAR=2006
DGENRE=Jazz
TTITLE0=Filthy McNasty
TTITLE1=Doin' The Thing
TTITLE2=Kiss Me Right
TTITLE3=The Gringo/Cool Eyes (Theme)
TTITLE4=It Ain't S'posed To Be Like That
TTITLE5=Cool Eyes (Full Version)
EXTD=YEAR: 2006
EXTT0=
EXTT1=
EXTT2=
EXTT3=
EXTT4=
EXTT5=
PLAYORDER=
